# xmcd
#
# Track frame offsets: 
#        150
#        20283
#        37101
#        52383
#        63593
#        77626
#        90675
#        102468
#        118625
#        132879
#        152217
#        164719
#        179411
#        190541
#        203443
#        215629
#        228823
#
# Disc length: 3228 seconds
#
# Revision: 0
# Processed by: cddbd v1.5.2PL0 Copyright (c) Steve Scherf et al.
# Submitted via: ExactAudioCopy v0.99pb4
#
DISCID=ee0c9a11
DTITLE=Little Joe - 16 De Septembre
DYEAR=1900
DGENRE=texmex
TTITLE0=Carmen Carmelita
TTITLE1=Corrido La Cortorra
TTITLE2=Soy Tuyo
TTITLE3=Margerita
TTITLE4=Faded Dreams
TTITLE5=Marie
TTITLE6=My World Would End
TTITLE7=To Kill A Memory
TTITLE8=You Belong To My Heart
TTITLE9=Feedin' Her Memory
TTITLE10=Prefiero Vivir
TTITLE11=I'll Be Waiting
TTITLE12=Jalisco
TTITLE13=16 De Septembre
TTITLE14=Corrido Del West
TTITLE15=Tu Nuevo Vida
TTITLE16=Ojala
EXTD=
EXTT0=
EXTT1=
EXTT2=
EXTT3=
EXTT4=
EXTT5=
EXTT6=
EXTT7=
EXTT8=
EXTT9=
EXTT10=
EXTT11=
EXTT12=
EXTT13=
EXTT14=
EXTT15=
EXTT16=
PLAYORDER=
